<svg id="logo" xmlns="http://www.w3.org/2000/svg" width="400" height="400" viewBox="0 0 200 200">
    <title>Loader Logo</title>
    <g>
        <g id="B" transform="translate(-0.000000, 200.000000) scale(0.10000, -0.10000)"
           fill="#a31a5a" stroke="none">
            <path d="M1163 1506 c-61 -20 -106 -50 -162 -112 -54 -59 -53 -59 -65 21 -16
101 -12 95 -72 95 l-54 0 0 -490 c0 -313 -4 -490 -10 -490 -5 0 -28 7 -51 17
-70 27 -69 24 -69 523 l0 440 -75 0 -76 0 3 -463 3 -463 25 -49 c34 -66 87
-93 196 -101 44 -4 106 -4 137 0 l57 7 0 375 0 375 52 50 c28 27 76 61 107 77
49 23 68 27 144 26 l87 0 0 82 c0 65 -3 83 -16 88 -26 10 -117 5 -161 -8z"/>
            <path d="M1215 1181 c-114 -51 -173 -199 -162 -404 8 -158 56 -262 144 -314
42 -24 58 -28 128 -28 82 0 111 10 163 55 24 20 24 20 7 65 -10 25 -20 45 -23
45 -3 0 -23 -12 -43 -26 -53 -37 -104 -41 -159 -12 -36 19 -51 35 -77 85 -94
184 -12 443 140 443 37 0 109 -30 122 -50 11 -18 20 -10 39 35 17 44 18 47 1
65 -53 59 -196 80 -280 41z"/>
        </g>
      <path
          stroke="#a31a5a"
          strokeWidth="7"
          strokeLinecap="round"
          strokeLinejoin="round"
          fill="none"
          d="M 100, 100
        m -80, 3
        a 75,75 5 1,0 155,0
        a 75,75 5 1,0 -155,0"
      />
    </g>
  </svg>
